<svg viewBox="0 0 1024 1024" xmlns="http://www.w3.org/2000/svg"><path d="M512 309q-13 0-22.5 9t-9.5 23v171q0 13 9 23l123 122q9 10 22.5 10t22.5-10q10-9 10-22.5T657 612L544 499V341q0-14-9.5-23t-22.5-9zm0-160q75 0 141 28.5t115.5 78Q818 305 846.5 371T875 512q0 75-28.5 141t-78 115.5Q719 818 653 846.5T512 875q-75 0-141-28.5t-115.5-78Q206 719 177.5 653T149 512q0-75 28.5-141t78-115.5Q305 206 371 177.5T512 149zM85 512q0 88 33.5 165.5t92 136q58.5 58.5 136 92T512 939q88 0 165.5-33.5t136-92q58.5-58.5 92-136T939 512q0-88-33.5-165.5t-92-136q-58.5-58.5-136-92T512 85q-88 0-165.5 33.5t-136 92q-58.5 58.5-92 136T85 512z"/></svg>