<svg viewBox="0 0 1024 1024" xmlns="http://www.w3.org/2000/svg"><path d="M459 171q59 0 111.5 22t92 62q39.5 40 62 92T747 459q0 59-22.5 111.5t-62 92q-39.5 39.5-92 62T459 747q-60 0-112-22.5t-92-62q-40-39.5-62-92T171 459q0-60 22-112t62-92q40-40 92-62t112-22zM107 459q0 73 27 136.5t75.5 112Q258 756 322 783.5T459 811q73 0 136.5-27.5t112-76q48.5-48.5 76-112T811 459q0-73-27.5-137t-76-112.5Q659 161 595.5 134T459 107q-73 0-137 27t-112.5 75.5Q161 258 134 322t-27 137zm574 222q-9 10-9 23t9 23l139 138q9 10 22.5 10t22.5-10q10-9 10-22.5T865 820L727 681q-10-9-23-9t-23 9z"/></svg>