<svg viewBox="0 0 1024 1024" xmlns="http://www.w3.org/2000/svg"><path d="M405 512q0 13 9.5 22.5T437 544h427q13 0 22.5-9.5T896 512q0-13-9.5-22.5T864 480H437q-13 0-22.5 9.5T405 512zm0-267q0 14 9.5 23t22.5 9h427q13 0 22.5-9t9.5-23q0-13-9.5-22.5T864 213H437q-13 0-22.5 9.5T405 245zm0 534q0 13 9.5 22.5T437 811h427q13 0 22.5-9.5T896 779q0-14-9.5-23t-22.5-9H437q-13 0-22.5 9t-9.5 23zM224 475q15 0 26 11t11 26q0 15-11 26t-26 11q-15 0-26-11t-11-26q0-15 11-26t26-11zm-101 37q0 42 29.5 71.5T224 613q42 0 71.5-29.5T325 512q0-42-29.5-71.5T224 411q-42 0-71.5 29.5T123 512zm211-342q-9-10-22.5-10t-22.5 9l-87 85-39-38q-10-10-23-9.5t-22 9.5q-10 9-9.5 22.5T118 261l47 46q15 15 37 15t37-15l94-92q10-9 10-22.5t-9-22.5zm0 533q-9-10-22.5-10t-22.5 9l-87 85-39-38q-10-9-23-9t-22 9q-10 10-9.5 23t9.5 23l47 45q15 15 37 15t37-15l94-92q10-9 10-22.5t-9-22.5z"/></svg>