<svg viewBox="0 0 1024 1024" xmlns="http://www.w3.org/2000/svg"><path d="M262 352q-13 0-22.5 9.5T230 384v161q0 35 17.5 64t46 46q28.5 17 63.5 17t64-17q29-17 46-46t17-64V384q0-13-9.5-22.5T452 352q-13 0-22.5 9.5T420 384v161q0 26-18.5 44.5T357 608q-26 0-44.5-18.5T294 545V384q0-13-9-22.5t-23-9.5zm278 32v256q0 13 9.5 22.5T572 672q13 0 22.5-9.5T604 640v-43h67q34 0 61.5-16.5T777 536q17-28 17-61 0-34-17-62t-44.5-44.5Q705 352 671 352h-99q-13 0-22.5 9.5T540 384zm64 149V416h67q24 0 41.5 17t17.5 42q0 24-17.5 41T671 533h-67zm-92-320q81 0 149.5 3.5T780 224q34 3 58 26.5t27 58.5q4 40 7 92t3 111q0 58-3 110.5t-7 92.5q-3 34-27 58t-58 27q-50 4-118.5 7.5T512 811q-81 0-149.5-3.5T245 800q-35-3-59-27t-27-58q-4-40-7-92.5T149 512q0-59 3-111t7-92q3-35 27-58.5t59-26.5q49-4 117.5-7.5T512 213zm-273-53q-38 3-69.5 22.5T118 233q-20 31-23 70-4 41-7 95t-3 114q0 60 3 113.5t7 95.5q3 38 23 69.5t51.5 50.5q31.5 19 69.5 23 51 4 121 7.5t152 3.5q82 0 152-3.5t121-7.5q38-4 69.5-23t51.5-50q20-31 23-70 4-42 7-95.5t3-113.5q0-60-3-114t-7-95q-3-39-23-70t-51.5-50.5Q823 163 785 160q-51-4-121-7.5T512 149q-82 0-152 3.5T239 160z"/></svg>