<svg viewBox="0 0 1024 1024" xmlns="http://www.w3.org/2000/svg"><path d="M532 160q49 0 88.5 1t69.5 2q37 1 62 29t25 68v495q0 42-27.5 72.5T682 860q-37 2-76.5 3t-73.5 1q-34 0-73.5-1t-76.5-3q-40-2-68-32.5T286 755V260q0-40 25-68t62-29q30-1 69.5-2t89.5-1zM371 99q-42 1-75.5 23.5t-52 58.5Q225 217 225 260v495q0 45 20.5 83t55.5 61q35 23 78 25 37 2 77.5 3t75.5 1q35 0 75-1t77-3q44-2 79-25t55.5-61q20.5-38 20.5-83V260q0-43-19-79t-52-58.5Q735 100 693 99q-31-1-71-2t-90-1q-50 0-90 1t-71 2zm70 173q0 13 8.5 21.5T470 302h123q12 0 20.5-8.5T622 272q0-13-8.5-21.5T593 242H470q-12 0-20.5 8.5T441 272zm132 475q0-18-12-30.5T532 704q-17 0-29 12.5T491 747q0 17 12 29.5t29 12.5q17 0 29-12.5t12-29.5z"/></svg>