<svg viewBox="0 0 1024 1024" xmlns="http://www.w3.org/2000/svg"><path d="M320 208v37q0 14 9.5 23t22.5 9q13 0 22.5-9t9.5-23v-37q0-18 12.5-30.5T427 165h170q18 0 30.5 12.5T640 208v37q0 14 9.5 23t22.5 9q13 0 22.5-9t9.5-23v-37q0-29-14.5-53.5t-38.5-39Q627 101 597 101H427q-30 0-54 14.5t-38.5 39Q320 179 320 208zM85 267q0 13 9.5 22.5T117 299h790q13 0 22.5-9.5T939 267q0-14-9.5-23t-22.5-9H117q-13 0-22.5 9T85 267zm118 101q-14 0-23 9.5t-9 22.5v343q0 42 19.5 78.5t53 60Q277 905 321 908q42 4 91.5 6.5T512 917q50 0 99.5-2.5T703 908q44-3 77.5-26.5t53-60Q853 785 853 743V400q0-13-9-22.5t-23-9.5q-13 0-22.5 9.5T789 400v343q0 40-26 69t-65 33q-41 3-89.5 5.5T512 853q-48 0-96.5-2.5T326 845q-39-4-65-33t-26-69V400q0-13-9.5-22.5T203 368zm202 80q-13 0-22.5 9.5T373 480v149q0 14 9.5 23t22.5 9q14 0 23-9t9-23V480q0-13-9-22.5t-23-9.5zm214 0q-14 0-23 9.5t-9 22.5v149q0 14 9 23t23 9q13 0 22.5-9t9.5-23V480q0-13-9.5-22.5T619 448z"/></svg>