<svg viewBox="0 0 1024 1024" xmlns="http://www.w3.org/2000/svg"><path d="M512 213q81 0 149.5 3.5T780 224q34 3 58 26.5t27 58.5q4 40 7 92t3 111q0 58-3 110.5t-7 92.5q-3 34-27 58t-58 27q-50 4-118.5 7.5T512 811q-81 0-149.5-3.5T245 800q-35-3-59-27t-27-58q-4-40-7-92.5T149 512q0-59 3-111t7-92q3-35 27-58.5t59-26.5q49-4 117.5-7.5T512 213zm-273-53q-38 3-69.5 22.5T118 233q-20 31-23 70-4 41-7 95t-3 114q0 60 3 113.5t7 95.5q3 38 23 69.5t51.5 50.5q31.5 19 69.5 23 51 4 121 7.5t152 3.5q82 0 152-3.5t121-7.5q38-4 69.5-23t51.5-50q20-31 23-70 4-42 7-95.5t3-113.5q0-60-3-114t-7-95q-3-39-23-70t-51.5-50.5Q823 163 785 160q-51-4-121-7.5T512 149q-82 0-152 3.5T239 160zm438 299q14 0 23-9.5t9-22.5q0-14-9-23t-23-9H421q-13 0-22.5 9t-9.5 23q0 13 9.5 22.5T421 459h256zm64 170q14 0 23-9t9-23q0-13-9-22.5t-23-9.5H485q-13 0-22.5 9.5T453 597q0 14 9.5 23t22.5 9h256zM336 427q0-14-9.5-23t-22.5-9h-21q-14 0-23 9t-9 23q0 13 9 22.5t23 9.5h21q13 0 22.5-9.5T336 427zm64 170q0-13-9.5-22.5T368 565h-21q-14 0-23 9.5t-9 22.5q0 14 9 23t23 9h21q13 0 22.5-9t9.5-23z"/></svg>