<svg viewBox="0 0 1024 1024" xmlns="http://www.w3.org/2000/svg"><path d="M507 240q76 0 140 25t115.5 63.5q51.5 38.5 89 79.5t60.5 73q10 14 10 31t-10 31q-23 32-60.5 73t-89 79.5Q711 734 647 759t-140 25q-77 0-140.5-25.5t-114-64.5Q202 655 166 614t-57-73q-9-13-9-29t9-29q21-32 57-73t86.5-80q50.5-39 114-64.5T507 240zM56 447q-20 30-20 65t20 65q18 26 46.5 61t68.5 71.5q40 36.5 90.5 68t112 51Q435 848 507 848q71 0 132-19t112.5-50q51.5-31 92.5-67t71-71q30-35 49-61 22-31 22-68t-22-68q-19-26-49-61t-71-71q-41-36-92.5-67T639 195q-61-19-132-19-72 0-133.5 19.5t-112 51Q211 278 171 314.5T102.5 386Q74 421 56 447zm456-58q34 0 62 16.5t44.5 44.5q16.5 28 16.5 62t-16.5 62Q602 602 574 618.5T512 635q-34 0-62-16.5T405.5 574Q389 546 389 512t16.5-62q16.5-28 44.5-44.5t62-16.5zM325 512q0 52 25.5 94t67.5 67.5q42 25.5 94 25.5t94-25.5q42-25.5 67.5-67.5t25.5-94q0-52-25.5-94T606 350.5Q564 325 512 325t-94 25.5Q376 376 350.5 418T325 512z"/></svg>