<svg viewBox="0 0 1024 1024" xmlns="http://www.w3.org/2000/svg"><path d="M734 261q-5 12 0 24t17 18q52 21 85 69t33 108q0 54-27.5 99T770 648q-12 7-16 19.5t3 24.5q6 11 19 15t24-3q60-32 96.5-92T933 480q0-53-20-100t-55.5-82Q822 263 776 243q-12-5-24.5 0T734 261zm24 400q-7 12-3.5 24.5T770 705q34 19 54 42.5t28.5 42Q861 808 863 813q4 13 15.5 19.5T903 835q13-4 19-16t2-24q-3-10-15-35t-37.5-55.5Q846 674 801 649q-11-7-24-3t-19 15zM389 171q67 0 121.5 32t86.5 86.5Q629 344 629 411q0 68-34.5 124T505 621q-12 7-15.5 19.5T492 665q6 11 19 15t24-3q71-38 114.5-109T693 411q0-63-23.5-118T604 196q-42-42-97-65.5T389 107q-63 0-118 23.5T174.5 196Q133 238 109 293T85 411q0 86 44 157t114 109q12 7 24.5 3t19.5-15q6-12 2.5-24.5T274 621q-56-30-90.5-86T149 411q0-67 32.5-121.5t87-86.5Q323 171 389 171zM286 634q-7-11-19.5-14.5T242 622q-53 30-83.5 66T114 754q-14 30-18 41-4 13 2.5 24.5T117 835q13 4 25-2.5t15-18.5q3-8 13.5-31t35.5-52q25-29 68-53 11-7 14.5-19.5T286 634zm207 0q-7 12-3.5 24.5T505 678q43 24 67.5 53t35.5 52q11 23 13 31 4 12 16 18.5t24 2.5q13-4 19-15.5t3-24.5q-4-11-18-41t-45-66q-31-36-84-66-11-6-24-2.5T493 634z"/></svg>