<svg viewBox="0 0 1024 1024" xmlns="http://www.w3.org/2000/svg"><path d="M594 109q8 1 19 8t22 27q10 18 11.5 39t-2.5 46q-4 25-12 51t-16 44q-3 9-3.5 18t5.5 17q9 14 26 14h213q17 0 27.5 11t8.5 26q-2 30-8.5 73T865 579q-14 57-34.5 104T791 763q-13 24-37 37.5T701 816q-41 2-100.5 3.5T469 821h-54.5q-26.5 0-51.5-1V368q36-9 72-41 22-20 41-42.5t38-56.5q14-25 23-55.5t28-53.5q4-5 12-8t17-2zm96 200q4-15 9.5-33.5T707 238q5-30 3-61.5T691 114q-16-32-39.5-49T602 45q-26-3-48.5 6.5T516 78q-22 26-31.5 58T458 197q-16 29-31.5 47.5T393 278q-21 19-36.5 25t-25.5 6h-96q-35 0-66 16t-51.5 44Q97 397 93 433q-3 32-5.5 71T85 587q0 48 3 91t7 78q5 52 43.5 86.5T228 880q46 2 108.5 3.5T469 885q73 0 133.5-1.5T705 879q43-2 81.5-23.5T847 794q20-35 42.5-86T927 594q14-55 20.5-100.5T957 415q3-30-10.5-54T909 323q-24-14-52-14H690zM299 818q-19 0-36-.5t-32-1.5q-29-1-49.5-20T158 749q-3-33-6-75t-3-87q0-42 2.5-79.5T157 440q3-28 25-47.5t53-19.5h64v445z"/></svg>