<svg viewBox="0 0 1024 1024" xmlns="http://www.w3.org/2000/svg"><path d="M512 85q88 0 165.5 33.5t136 92q58.5 58.5 92 136T939 512q0 88-33.5 165.5t-92 136q-58.5 58.5-136 92T512 939q-88 0-165.5-33.5t-136-92q-58.5-58.5-92-136T85 512q0-88 33.5-165.5t92-136q58.5-58.5 136-92T512 85zM361 406l106 106-106 106q-9 9-9 22t9 23q9 9 22.5 9t22.5-9l106-106 106 106q9 9 22.5 9t22.5-9q9-10 9-23t-9-22L557 512l106-106q9-9 9-22.5t-9-22.5q-9-9-22.5-9t-22.5 9L512 467 406 361q-9-9-22.5-9t-22.5 9q-9 9-9 22.5t9 22.5z"/></svg>