<svg viewBox="0 0 1024 1024" xmlns="http://www.w3.org/2000/svg"><path d="M864 512q0 59-1 105t-2 80q-1 34-26.5 58T773 779H259q-38 0-65.5-26.5T164 689q-1-43-2.5-90t-1.5-87q0-40 1.5-87t2.5-90q2-37 29.5-63.5T259 245h514q36 0 61.5 24t26.5 58q1 34 2 80t1 105zm61-187q-2-42-23-74t-55-51q-34-19-74-19H259q-42 0-77.5 20T124 255.5Q102 290 101 333q-2 42-3.5 90T96 512q0 41 1.5 89t3.5 90q1 43 23 77.5t57.5 54.5q35.5 20 77.5 20h514q40 0 74-19t55-51q21-32 23-74 1-35 2-81.5t1-105.5q0-59-1-105.5t-2-81.5zM396 693q0 13 9 22t22 9h170q13 0 22-9t9-22q0-12-9-21t-22-9H427q-13 0-22 9t-9 21z"/></svg>