<svg viewBox="0 0 1024 1024" xmlns="http://www.w3.org/2000/svg"><path d="M501 203q79 0 146 3t115 6q34 3 57.5 25.5T846 292q3 31 5 70.5t2 85.5q0 46-2 85.5t-5 70.5q-3 32-26.5 54.5T762 684q-48 3-115 6t-146 3q-78 0-145-3t-116-6q-33-3-56.5-25.5T157 604q-3-31-5.5-70.5T149 448q0-46 2.5-85.5T157 292q3-32 26.5-54.5T240 212q49-3 116-6t145-3zm-266-54q-55 4-96 42t-46 95q-3 33-5.5 73.5T85 448q0 48 2.5 88.5T93 610q5 57 46 95t96 42q50 4 118 7t148 3q81 0 149-3t117-7q56-4 96.5-42t46.5-95q3-33 5-73.5t2-88.5q0-48-2-88.5t-5-73.5q-6-57-46.5-95T767 149q-49-4-117-7t-149-3q-80 0-148 3t-118 7zm55 699q0 13 8.5 21.5T320 878h384q13 0 21.5-8.5T734 848q0-13-8.5-21.5T704 818H320q-13 0-21.5 8.5T290 848zm222-132q-13 0-21.5 9t-8.5 22v96q0 12 8.5 21t21.5 9q13 0 21.5-9t8.5-21v-96q0-13-8.5-22t-21.5-9z"/></svg>