<svg viewBox="0 0 1024 1024" xmlns="http://www.w3.org/2000/svg"><path d="M512 277q81 0 149.5 3.5T780 288q34 2 58.5 25.5T866 371q3 37 6 84t3 100q0 52-3 99t-6 84q-3 34-27.5 57.5T780 822q-50 4-118.5 7T512 832q-81 0-149.5-3T244 822q-34-3-58.5-26.5T158 738q-3-37-6-84t-3-99q0-53 3-100t6-84q3-34 27.5-57.5T244 288q50-4 118.5-7.5T512 277zm-273-53q-38 3-69.5 22T118 296q-20 31-24 69-3 39-6 87.5T85 555q0 54 3 102.5t6 86.5q4 39 24 70t51.5 50q31.5 19 69.5 22 51 4 121 7t152 3q82 0 152-3t121-7q38-3 69.5-22t51.5-50q20-31 24-70 3-38 6-86.5t3-102.5q0-55-3-103t-6-87q-4-38-24-69t-51.5-50Q823 227 785 224q-51-4-121-7.5T512 213q-82 0-152 3.5T239 224zm357 518q-2 13 5.5 23t20.5 12q12 2 22.5-6t11.5-20q29-196 0-393-1-12-11.5-19.5T622 333q-13 1-20.5 11t-5.5 23q28 188 0 375zm215-321q0-15-11-26t-27-11q-15 0-26 11t-11 26q0 16 11 27t26 11q16 0 27-11t11-27zm0 139q0-15-11-26t-27-11q-15 0-26 11t-11 26q0 15 11 26t26 11q16 0 27-11t11-26zM496 253l123-112q10-9 10.5-22.5T621 96q-9-10-22.5-10.5T576 94l-107 97-106-97q-10-9-23-8.5T318 96q-9 9-8.5 22.5T320 141l122 112q12 11 27.5 11t26.5-11z"/></svg>