<svg viewBox="0 0 1024 1024" xmlns="http://www.w3.org/2000/svg"><path d="M539 649v132q0 45 32.5 77.5T649 891h132q45 0 77.5-32.5T891 781V649q0-45-32.5-77.5T781 539H649q-45 0-77.5 32.5T539 649zm110-36h132q15 0 25.5 10.5T817 649v132q0 15-10.5 25.5T781 817H649q-15 0-25.5-10.5T613 781V649q0-15 10.5-25.5T649 613zm-516 36v132q0 45 32.5 77.5T243 891h132q45 0 77.5-32.5T485 781V649q0-45-32.5-77.5T375 539H243q-45 0-77.5 32.5T133 649zm110-36h132q15 0 25.5 10.5T411 649v132q0 15-10.5 25.5T375 817H243q-15 0-25.5-10.5T207 781V649q0-15 10.5-25.5T243 613zm296-370v132q0 45 32.5 77.5T649 485h132q45 0 77.5-32.5T891 375V243q0-45-32.5-77.5T781 133H649q-45 0-77.5 32.5T539 243zm110-36h132q15 0 25.5 10.5T817 243v132q0 15-10.5 25.5T781 411H649q-15 0-25.5-10.5T613 375V243q0-15 10.5-25.5T649 207zm-516 36v132q0 45 32.5 77.5T243 485h132q45 0 77.5-32.5T485 375V243q0-45-32.5-77.5T375 133H243q-45 0-77.5 32.5T133 243zm110-36h132q15 0 25.5 10.5T411 243v132q0 15-10.5 25.5T375 411H243q-15 0-25.5-10.5T207 375V243q0-15 10.5-25.5T243 207z"/></svg>