<svg viewBox="0 0 1024 1024" xmlns="http://www.w3.org/2000/svg"><path d="M129 649v132q0 45 32 77.5t78 32.5h131q46 0 78-32.5t32-77.5V649q0-45-32-77.5T370 539H239q-46 0-78 32.5T129 649zm110-36h131q15 0 26 10.5t11 25.5v132q0 15-11 25.5T370 817H239q-16 0-26.5-10.5T202 781V649q0-15 10.5-25.5T239 613zM129 243v132q0 45 32 77.5t78 32.5h131q46 0 78-32.5t32-77.5V243q0-45-32-77.5T370 133H239q-46 0-78 32.5T129 243zm110-36h131q15 0 26 10.5t11 25.5v132q0 15-11 25.5T370 411H239q-16 0-26.5-10.5T202 375V243q0-15 10.5-25.5T239 207zm305 11q0 15 11.5 26t27.5 11h273q16 0 27.5-11t11.5-26q0-15-11.5-26T856 181H583q-16 0-27.5 11T544 218zm0 183q0 15 11.5 25.5T583 437h273q16 0 27.5-10.5T895 401q0-15-11.5-26T856 364H583q-16 0-27.5 11T544 401zm0 221q0 15 11.5 25.5T583 658h273q16 0 27.5-10.5T895 622q0-15-11.5-26T856 585H583q-16 0-27.5 11T544 622zm0 183q0 15 11.5 25.5T583 841h273q16 0 27.5-10.5T895 805q0-16-11.5-26.5T856 768H583q-16 0-27.5 10.5T544 805z"/></svg>