<svg viewBox="0 0 1024 1024" xmlns="http://www.w3.org/2000/svg"><path d="M512 213q54 0 95.5 1.5T678 218q21 1 38.5 14t25.5 34q13 34 29.5 79.5T801 436q4 12 15.5 18.5T841 457q13-3 19-15t3-24q-14-47-31-94t-30-82q-15-37-47-61t-73-27q-30-2-72.5-3.5T512 149q-55 0-97.5 1.5T342 154q-41 3-73 27t-47 61q-13 35-30 82t-31 94q-3 12 3 24t19 15q13 4 24.5-2.5T223 436q13-45 29.5-90.5T282 266q8-21 25.5-34t38.5-14q29-2 70.5-3.5T512 213zm0 246q111 0 187.5 2t120.5 4q17 1 28.5 12t12.5 26q1 15 2 33.5t1 39.5q0 21-1 39.5t-2 33.5q-1 15-12.5 26T820 687q-44 2-120.5 4T512 693q-111 0-187.5-2T204 687q-17-1-28.5-12T163 649q-1-15-2-33.5t-1-39.5q0-21 1-39.5t2-33.5q1-15 12.5-26t28.5-12q44-2 120.5-4t187.5-2zm-311-58q-40 2-69.5 29T99 498q-1 16-2 35.5T96 576q0 23 1 42.5t2 35.5q3 41 32.5 68t69.5 29q44 2 121.5 4t189.5 2q112 0 189.5-2t121.5-4q40-2 69.5-29t32.5-68q1-16 2-35.5t1-42.5q0-23-1-42.5t-2-35.5q-3-41-32.5-68T823 401q-44-2-121.5-4T512 395q-112 0-189.5 2T201 401zm2 175q0 13 9 22.5t23 9.5h106q14 0 23-9.5t9-22.5q0-13-9-22.5t-23-9.5H235q-14 0-23 9.5t-9 22.5zM86 390q-2 13 6 23.5t21 12.5l74 11q14 2 24.5-6t12.5-21q2-13-6-23.5T197 374l-75-11q-13-2-23.5 6T86 390zm597 154q-14 0-23 9.5t-9 22.5q0 13 9 22.5t23 9.5h106q14 0 23-9.5t9-22.5q0-13-9-22.5t-23-9.5H683zM160 683q-13 0-22.5 9t-9.5 23v53q0 35 25 60t60 25h64q36 0 61-25t25-60v-43q0-13-9.5-22.5T331 693q-14 0-23 9.5t-9 22.5v43q0 9-6.5 15t-15.5 6h-64q-9 0-15-6t-6-15v-53q0-14-9.5-23t-22.5-9zm778-293q-2-13-12.5-21t-23.5-6l-75 11q-13 2-21 12.5t-6 23.5q2 13 12.5 21t24.5 6l74-11q13-2 21-12.5t6-23.5zm-74 287q-13 0-22.5 9.5T832 709v59q0 9-6 15t-15 6h-64q-9 0-15.5-6t-6.5-15v-37q0-14-9-23t-23-9q-13 0-22.5 9t-9.5 23v37q0 35 25 60t61 25h64q35 0 60-25t25-60v-59q0-13-9.5-22.5T864 677z"/></svg>