<svg viewBox="0 0 1024 1024" xmlns="http://www.w3.org/2000/svg"><path d="M512 832q-82 0-141.5-2.5T272 824q-30-3-49.5-25.5T203 743V309q0-39 28-67.5t68-28.5h426q40 0 68 28.5t28 67.5v434q0 33-19.5 55.5T752 824q-39 3-98.5 5.5T512 832zm246 55q38-3 66.5-23.5t44.5-52q16-31.5 16-68.5V309q0-44-21.5-80T806 171q-36-22-81-22H299q-45 0-81 22t-57.5 58Q139 265 139 309v434q0 37 16 68.5t44.5 52Q228 884 266 887q41 4 101.5 6.5T512 896q84 0 144.5-2.5T758 887zM239 309v235q0 25 17.5 42.5T299 604h426q25 0 42.5-17.5T785 544V309q0-24-17.5-41.5T725 250H299q-25 0-42.5 17.5T239 309zm61-4h424q6 0 6 6v232q0 5-6 5H300q-6 0-6-5V311q0-6 6-6zm180 367q0 13 9.5 22.5T512 704q13 0 22.5-9.5T544 672q0-13-9.5-22.5T512 640q-13 0-22.5 9.5T480 672zm117 0q0 13 9.5 22.5T629 704q14 0 23-9.5t9-22.5q0-13-9-22.5t-23-9.5q-13 0-22.5 9.5T597 672zm-352 0q0 13 9.5 22.5T277 704q14 0 23-9.5t9-22.5q0-13-9-22.5t-23-9.5q-13 0-22.5 9.5T245 672zm470 0q0 13 9 22.5t23 9.5q13 0 22.5-9.5T779 672q0-13-9.5-22.5T747 640q-14 0-23 9.5t-9 22.5zm-352 0q0 13 9 22.5t23 9.5q13 0 22.5-9.5T427 672q0-13-9.5-22.5T395 640q-14 0-23 9.5t-9 22.5zm174 85q0 14 9 23t23 9q13 0 22.5-9t9.5-23q0-13-9.5-22.5T569 725q-14 0-23 9.5t-9 22.5zm117 0q0 14 9.5 23t22.5 9q13 0 22.5-9t9.5-23q0-13-9.5-22.5T686 725q-13 0-22.5 9.5T654 757zm-352 0q0 14 9.5 23t22.5 9q13 0 22.5-9t9.5-23q0-13-9.5-22.5T334 725q-13 0-22.5 9.5T302 757zm117 0q0 14 9.5 23t22.5 9q14 0 23-9t9-23q0-13-9-22.5t-23-9.5q-13 0-22.5 9.5T419 757z"/></svg>