<svg viewBox="0 0 1024 1024" xmlns="http://www.w3.org/2000/svg"><path d="M193 523q-13-1-23 8t-10 23l-8 253q-1 30 13 55t38.5 40q24.5 15 54.5 15h508q30 0 54.5-15t38.5-40q14-25 13-55l-8-253q0-14-10-23t-23-8q-13 0-22 9.5t-9 23.5l8 253q1 18-11.5 31T766 853H258q-18 0-30.5-13T216 809l8-253q0-14-9-23.5t-22-9.5zm426 181q-14 0-23 9.5t-9 22.5v128q0 13 9 22.5t23 9.5q13 0 22.5-9.5T651 864V736q0-13-9.5-22.5T619 704zm-214 43q-13 0-22.5 9t-9.5 23v85q0 13 9.5 22.5T405 896q14 0 23-9.5t9-22.5v-85q0-14-9-23t-23-9zm107-576q32 0 59 15.5t42.5 42.5q15.5 27 15.5 59v39q0 23 15.5 40t39.5 19l101 11q25 2 41.5 20.5T843 460v44q0 4-3 7t-7 3q-44 3-127.5 6T512 523q-110 0-193.5-3T191 514q-4 0-7-3t-3-7v-44q0-24 16.5-42.5T239 397l101-11q24-2 39.5-19t15.5-40v-39q0-32 15.5-59t42.5-42.5q27-15.5 59-15.5zm0-64q-50 0-91 24.5T355.5 197Q331 238 331 288v32q0 3-4 3l-94 10q-49 5-82.5 41.5T117 460v44q0 30 20 51.5t50 22.5q44 3 128.5 6t196.5 3q112 0 196.5-3t128.5-6q30-1 50-22.5t20-51.5v-44q0-49-33.5-85.5T791 333l-94-10q-4 0-4-3v-32q0-50-24.5-91T603 131.5Q562 107 512 107z"/></svg>